<svg xmlns="http://www.w3.org/2000/svg" xml:space="preserve" width="200" height="200" viewBox="0 0 200 200"><path fill="#489f61" d="M99.56 183.625 161.31 200l4.82-66.625L200 76.75l-58.87-25.375L100.31 0 59.13 51 0 75.875l33.5 56.875 4.19 66.75z"/><g fill="#f9f9f9" stroke="#f2f2f2" aria-label="38"><path d="M69.15 86.954q-8.36 0-11.55 4.62-3.08 4.51-3.3 12.1h-9.68q.55-25.19 24.42-25.19 11.11 0 17.38 5.72 6.38 5.72 6.38 15.73 0 11.88-10.89 16.17 7.04 2.42 10.12 6.82 3.08 4.29 3.08 11.77 0 11.11-7.26 17.71-7.15 6.6-19.14 6.6-23.98 0-25.74-25.19h9.68q.55 8.47 4.51 12.54t11.88 4.07q7.59 0 11.88-4.07 4.29-4.18 4.29-11.55 0-14.19-16.17-14.19l-4.07.11h-1.21v-8.25q10.45-.22 14.74-2.64 4.4-2.42 4.4-9.57 0-6.16-3.74-9.68-3.63-3.63-10.01-3.63zM143.62 115.444q13.42 6.38 13.42 19.47 0 10.67-7.37 17.38-7.26 6.71-18.81 6.71t-18.92-6.71q-7.26-6.82-7.26-17.49 0-12.98 13.31-19.36-5.94-3.74-8.25-7.26t-2.31-8.91q0-9.13 6.49-14.96 6.6-5.83 16.94-5.83t16.83 5.83q6.6 5.83 6.6 14.96 0 5.5-2.31 9.02t-8.36 7.15zm-2.97-24.97q-3.63-3.41-9.79-3.41t-9.9 3.41q-3.63 3.3-3.63 8.91 0 5.5 3.63 8.91 3.74 3.3 9.9 3.3 6.05 0 9.79-3.3t3.74-8.8q0-5.72-3.74-9.02zm1.98 33.55q-4.51-4.29-11.77-4.29t-11.77 4.29q-4.51 4.18-4.51 11t4.4 11.11q4.51 4.29 11.66 4.29 7.37 0 11.88-4.18 4.62-4.29 4.62-11.22 0-6.82-4.51-11z"/></g></svg>