<svg xmlns="http://www.w3.org/2000/svg" xml:space="preserve" width="200" height="200" viewBox="0 0 200 200"><path fill="#734c96" d="m99.562 183.62 61.75 16.38 4.813-66.62L200 76.75l-58.875-25.375L100.312 0 59.125 51 0 75.875l33.5 56.875 4.188 66.75z"/><g fill="#f9f9f9" stroke="#f2f2f2" aria-label="43"><path d="M76.02 137.774H43.13v-10.23l35.42-49.06h7.15v50.6h11.55v8.69H85.7v18.7h-9.68zm0-8.69v-34.1l-24.42 34.1zM130.91 86.954q-8.36 0-11.55 4.62-3.08 4.51-3.3 12.1h-9.68q.55-25.19 24.42-25.19 11.11 0 17.38 5.72 6.38 5.72 6.38 15.73 0 11.88-10.89 16.17 7.04 2.42 10.12 6.82 3.08 4.29 3.08 11.77 0 11.11-7.26 17.71-7.15 6.6-19.14 6.6-23.98 0-25.74-25.19h9.68q.55 8.47 4.51 12.54t11.88 4.07q7.59 0 11.88-4.07 4.29-4.18 4.29-11.55 0-14.19-16.17-14.19l-4.07.11h-1.21v-8.25q10.45-.22 14.74-2.64 4.4-2.42 4.4-9.57 0-6.16-3.74-9.68-3.63-3.63-10.01-3.63z"/></g></svg>